<svg xmlns="http://www.w3.org/2000/svg" width="1200" height="630" viewBox="0 0 1200 630" role="img" aria-labelledby="title desc">
  <title id="title">Jiwon Kim Engineering Notes</title>
  <desc id="desc">Social preview for an engineering journal about backend, cloud, RAG, and operations.</desc>
  <rect width="1200" height="630" fill="#f3f5f2"/>
  <g stroke="#d9dfda" stroke-width="1">
    <path d="M0 90H1200M0 180H1200M0 270H1200M0 360H1200M0 450H1200M0 540H1200"/>
    <path d="M150 0V630M300 0V630M450 0V630M600 0V630M750 0V630M900 0V630M1050 0V630"/>
  </g>
  <rect x="56" y="48" width="1088" height="534" fill="#fbfcfa" stroke="#171a18" stroke-width="2"/>
  <rect x="96" y="88" width="72" height="72" fill="#171a18"/>
  <text x="132" y="133" text-anchor="middle" fill="#fbfcfa" font-family="Arial, Helvetica, sans-serif" font-size="26" font-weight="800">JK</text>
  <text x="192" y="112" fill="#171a18" font-family="Arial, Helvetica, sans-serif" font-size="24" font-weight="700">Jiwon Kim</text>
  <text x="192" y="145" fill="#68716b" font-family="Arial, Helvetica, sans-serif" font-size="20">Independent engineering journal</text>
  <line x1="96" y1="202" x2="1104" y2="202" stroke="#171a18" stroke-width="2"/>
  <text x="96" y="250" fill="#0d675c" font-family="Arial, Helvetica, sans-serif" font-size="20" font-weight="800">BACKEND · CLOUD · RAG · OPERATIONS</text>
  <text x="96" y="350" fill="#171a18" font-family="Arial, Helvetica, sans-serif" font-size="78" font-weight="800">Engineering Notes</text>
  <text x="96" y="410" fill="#3f4742" font-family="Arial, Helvetica, sans-serif" font-size="27">Architecture decisions, failure modes,</text>
  <text x="96" y="452" fill="#3f4742" font-family="Arial, Helvetica, sans-serif" font-size="27">implementation evidence, and validation.</text>
  <line x1="96" y1="508" x2="900" y2="508" stroke="#d9dfda" stroke-width="2"/>
  <rect x="1020" y="492" width="84" height="16" fill="#b54132"/>
  <text x="96" y="548" fill="#68716b" font-family="Arial, Helvetica, sans-serif" font-size="20" font-weight="700">andrewkimswe.github.io</text>
</svg>
